<svg width="14" height="14" viewBox="0 0 14 14" fill="none" xmlns="http://www.w3.org/2000/svg">
<path d="M7.5 3.5C7.5 3.22386 7.27614 3 7 3C6.72386 3 6.5 3.22386 6.5 3.5H7.5ZM7 7H6.5C6.5 7.27614 6.72386 7.5 7 7.5V7ZM10.5 7.5C10.7761 7.5 11 7.27614 11 7C11 6.72386 10.7761 6.5 10.5 6.5V7.5ZM7 13.5C10.5898 13.5 13.5 10.5898 13.5 7H12.5C12.5 10.0376 10.0376 12.5 7 12.5V13.5ZM13.5 7C13.5 3.41015 10.5898 0.5 7 0.5V1.5C10.0376 1.5 12.5 3.96243 12.5 7H13.5ZM7 0.5C3.41015 0.5 0.5 3.41015 0.5 7H1.5C1.5 3.96243 3.96243 1.5 7 1.5V0.5ZM0.5 7C0.5 10.5898 3.41015 13.5 7 13.5V12.5C3.96243 12.5 1.5 10.0376 1.5 7H0.5ZM6.5 3.5V7H7.5V3.5H6.5ZM7 7.5H10.5V6.5H7V7.5Z" fill="#BEBEBE"/>
</svg>
