<svg width="24" height="24" viewBox="0 0 24 24" fill="none" xmlns="http://www.w3.org/2000/svg">
<path d="M3.75 11.3125H20.25C20.4323 11.3125 20.6072 11.3849 20.7361 11.5139C20.8651 11.6428 20.9375 11.8177 20.9375 12C20.9375 12.1823 20.8651 12.3572 20.7361 12.4861C20.6072 12.6151 20.4323 12.6875 20.25 12.6875H3.75C3.56766 12.6875 3.3928 12.6151 3.26386 12.4861C3.13493 12.3572 3.0625 12.1823 3.0625 12C3.0625 11.8177 3.13493 11.6428 3.26386 11.5139C3.3928 11.3849 3.56766 11.3125 3.75 11.3125Z" fill="white" stroke="white" stroke-width="0.125"></path>
<path d="M20.25 6.6875H3.75C3.56766 6.6875 3.3928 6.61507 3.26386 6.48614C3.13493 6.3572 3.0625 6.18234 3.0625 6C3.0625 5.81766 3.13493 5.6428 3.26386 5.51386C3.3928 5.38493 3.56766 5.3125 3.75 5.3125H20.25C20.4323 5.3125 20.6072 5.38493 20.7361 5.51386C20.8651 5.6428 20.9375 5.81766 20.9375 6C20.9375 6.18234 20.8651 6.3572 20.7361 6.48614C20.6072 6.61507 20.4323 6.6875 20.25 6.6875Z" fill="white" stroke="white" stroke-width="0.125"></path>
<path d="M3.75 17.3125H20.25C20.4323 17.3125 20.6072 17.3849 20.7361 17.5139C20.8651 17.6428 20.9375 17.8177 20.9375 18C20.9375 18.1823 20.8651 18.3572 20.7361 18.4861C20.6072 18.6151 20.4323 18.6875 20.25 18.6875H3.75C3.56766 18.6875 3.3928 18.6151 3.26386 18.4861C3.13493 18.3572 3.0625 18.1823 3.0625 18C3.0625 17.8177 3.13493 17.6428 3.26386 17.5139C3.3928 17.3849 3.56766 17.3125 3.75 17.3125Z" fill="white" stroke="white" stroke-width="0.125"></path>
</svg>