<svg width="100%" height="34.48275862068966%" viewBox="0 0 116 40" fill="none" xmlns="http://www.w3.org/2000/svg">
<g clip-path="url(#1631299372999-clip0)">
<path d="M11.7726 6.94566C12.0684 6.94566 12.3625 6.94566 12.6583 6.94566C16.0128 6.94566 19.3692 6.93479 22.7255 6.94566C24.6655 6.95472 26.5324 7.35689 28.255 8.31523C32.0062 10.404 34.2264 13.6377 34.7501 18.0308C35.1764 21.6105 34.2281 24.8315 31.9784 27.5797C30.0296 30.0238 27.2443 31.583 24.2114 31.9275C23.8828 31.9682 23.5522 31.9882 23.2214 31.9873H12.6931C12.5991 31.9873 12.5052 31.9783 12.4112 31.9746C12.4112 31.7355 12.5956 31.7554 12.74 31.7319C14.0623 31.5295 15.3451 31.1087 16.54 30.4855C18.7463 29.3213 20.5477 27.4679 21.692 25.1848C22.4029 23.7789 22.836 22.2389 22.9656 20.6558C23.2579 17.2609 22.3618 14.2355 20.2948 11.6141C18.3478 9.14856 15.8058 7.72827 12.7714 7.26631C12.5365 7.23008 12.3033 7.2029 12.0754 7.18841C11.9292 7.16848 11.7692 7.16124 11.7726 6.94566Z" fill="var(--icon-color, black)" fill-opacity="0.5"></path>
<path d="M11.7725 6.94568C12.4685 7.05075 13.1784 7.10148 13.8709 7.27177C16.6273 7.93143 19.0724 9.58121 20.7767 11.9314C22.481 14.2815 23.3354 17.1817 23.1901 20.1227C23.0447 23.0636 21.9087 25.8572 19.9817 28.0127C18.0547 30.1682 15.4599 31.5479 12.6529 31.9095C12.5719 31.9249 12.4918 31.9448 12.4128 31.9692C12.0648 31.9783 11.7047 31.9837 11.3515 32.0018C11.1549 32.0109 11.0644 31.933 11.0783 31.7247C11.0783 31.6015 11.0783 31.4783 11.0783 31.3624V7.69387C11.0783 6.95111 11.0783 6.95111 11.7725 6.94568Z" fill="var(--icon-color, black)"></path>
<path d="M59.7284 23.8678C58.6751 23.8624 57.6545 23.4856 56.8332 22.799C56.6435 22.645 56.6314 22.5363 56.8071 22.3678C57.0259 22.1617 57.2339 21.9434 57.43 21.7138C57.5866 21.5327 57.6944 21.5163 57.8824 21.6957C58.3722 22.1882 59.02 22.4741 59.7006 22.4982C60.0092 22.5192 60.3166 22.4408 60.581 22.2736C60.7967 22.1287 60.9794 21.9475 60.9586 21.654C60.948 21.5171 60.8947 21.3875 60.8067 21.2851C60.7187 21.1827 60.6009 21.1131 60.4714 21.087C60.1443 20.991 59.8067 20.9258 59.4709 20.8587C59.0047 20.7793 58.5471 20.6519 58.1051 20.4783C56.9567 19.9874 56.5861 18.799 57.2525 17.7011C57.7449 16.8932 58.507 16.5779 59.3857 16.5236C60.3792 16.4602 61.2665 16.7899 62.0843 17.3587C62.2583 17.4765 62.2861 17.5816 62.1347 17.7301C62.1191 17.7464 62.1069 17.7682 62.0912 17.7881C61.8877 18.0435 61.7311 18.3986 61.4718 18.5272C61.1656 18.6812 60.9499 18.2555 60.6715 18.1305C60.1495 17.9022 59.6379 17.7826 59.0899 17.9692C58.681 18.1069 58.4792 18.366 58.5018 18.6939C58.5296 19.0997 58.8341 19.2048 59.1368 19.2754C59.6588 19.3986 60.1808 19.491 60.7028 19.5961C60.8072 19.6178 60.9098 19.6395 61.0125 19.6685C61.6998 19.8497 62.2809 20.1903 62.4566 20.9674C62.5534 21.3575 62.5412 21.7682 62.4216 22.1513C62.3021 22.5345 62.08 22.8741 61.7815 23.1305C61.1726 23.6993 60.4244 23.8479 59.7284 23.8678Z" fill="var(--icon-color, black)"></path>
<path d="M97.6206 17.221C98.1426 16.6232 98.6646 16.395 99.3188 16.5797C99.7207 16.6957 99.7433 16.7392 99.6076 17.1359C99.4997 17.4475 99.3884 17.7573 99.284 18.0689C99.2301 18.2319 99.1726 18.3044 98.9778 18.2355C98.2348 17.971 97.7146 18.3642 97.7111 19.183C97.7111 20.52 97.7111 21.8587 97.7111 23.1957C97.7111 23.6703 97.7111 23.6703 97.2378 23.6721C96.9664 23.6721 96.695 23.6721 96.4236 23.6721C96.2235 23.6721 96.1573 23.5888 96.1573 23.3877C96.1573 21.2524 96.1573 19.1178 96.1573 16.9837C96.1573 16.7681 96.2461 16.7029 96.434 16.7084C96.695 16.7084 96.956 16.7229 97.2135 16.7084C97.471 16.6939 97.685 16.7428 97.6206 17.221Z" fill="var(--icon-color, black)"></path>
<path d="M86.5009 17.6775C86.5009 16.7083 86.5009 16.7083 85.577 16.7083C85.055 16.7083 85.055 16.7083 85.0202 17.2518C85.0202 17.2699 84.9958 17.288 84.9837 17.3062C83.3621 16.1938 81.6134 16.3279 80.4599 17.6485C79.3515 18.9076 79.2854 21.0906 80.3207 22.442C80.7943 23.0699 81.4776 23.489 82.2346 23.6159C82.7307 23.7276 83.2458 23.7073 83.7324 23.5569C84.2189 23.4065 84.6612 23.1308 85.0185 22.7554C85.062 23.4366 84.9088 23.9493 84.4965 24.3641C84.103 24.7547 83.5779 24.9686 83.0344 24.9598C82.4909 24.9509 81.9724 24.7201 81.5908 24.317C81.4168 24.1359 81.3037 24.1359 81.1228 24.2826C80.8873 24.4875 80.6385 24.6751 80.3781 24.8442C80.1241 25.0072 80.1763 25.1359 80.3555 25.3206C80.774 25.777 81.2965 26.116 81.8744 26.306C82.4523 26.496 83.067 26.531 83.6613 26.4076C85.4291 26.0869 86.4991 24.7029 86.513 22.7554C86.5148 21.0634 86.5009 19.3714 86.5009 17.6775ZM83.1411 22.1612C82.8835 22.164 82.6281 22.1126 82.3901 22.0102C82.152 21.9078 81.9363 21.7564 81.7558 21.565C81.5753 21.3737 81.4338 21.1465 81.3397 20.8968C81.2455 20.6472 81.2008 20.3804 81.208 20.1123C81.2039 19.8449 81.2506 19.5794 81.3453 19.3308C81.4401 19.0823 81.5811 18.8558 81.7603 18.6642C81.9394 18.4726 82.1532 18.3198 82.3893 18.2145C82.6253 18.1092 82.8791 18.0535 83.1359 18.0507C83.3899 18.0556 83.6404 18.1128 83.8731 18.219C84.1058 18.3252 84.316 18.4783 84.4916 18.6694C84.6672 18.8605 84.8048 19.0859 84.8964 19.3326C84.9881 19.5793 85.0319 19.8425 85.0254 20.1069C85.0272 21.2627 84.2146 22.1485 83.1411 22.1612Z" fill="var(--icon-color, black)"></path>
<path d="M69.7417 17.6196C68.7656 16.5163 66.676 15.9493 65.124 17.3786C65.1099 17.2907 65.1035 17.2015 65.1048 17.1123C65.1553 16.779 65.0091 16.6776 64.7064 16.7047C64.4709 16.7292 64.2337 16.7292 63.9982 16.7047C63.6381 16.6649 63.5406 16.8062 63.5424 17.1794C63.558 19.8968 63.5424 22.6232 63.5528 25.3442C63.5528 26.1123 63.4536 26.0308 64.2088 26.0344C65.1031 26.0344 65.1031 26.0344 65.1031 25.116V23.0435C66.8952 24.241 68.6438 24.0471 69.8461 22.5562C70.4183 21.8656 70.7243 20.9788 70.705 20.067C70.6857 19.1552 70.3425 18.2832 69.7417 17.6196ZM67.0431 22.3297C66.5078 22.3117 66.0003 22.0772 65.6283 21.6759C65.2564 21.2746 65.0494 20.7381 65.0512 20.1805C65.053 19.6228 65.2635 19.0878 65.638 18.6892C66.0126 18.2905 66.5216 18.0595 67.057 18.0453C67.5924 18.0633 68.0999 18.2978 68.4718 18.6991C68.8437 19.1004 69.0508 19.6369 69.049 20.1946C69.0471 20.7522 68.8366 21.2872 68.4621 21.6859C68.0876 22.0845 67.5785 22.3155 67.0431 22.3297Z" fill="var(--icon-color, black)"></path>
<path d="M47.65 19.1069C47.65 17.7446 47.65 16.3895 47.65 15.0199C47.65 14.75 47.57 14.6413 47.302 14.6576C47.0433 14.6812 46.783 14.6812 46.5243 14.6576C46.1867 14.6214 46.0719 14.741 46.0841 15.1015C46.1102 15.8261 46.0841 16.5652 46.0841 17.375C44.6782 16.0236 42.6947 16.4493 41.6368 17.491C41.0076 18.0898 40.6071 18.9049 40.509 19.7866C40.4109 20.6682 40.6217 21.5571 41.1027 22.2899C41.5372 22.9897 42.2044 23.498 42.9766 23.7174C43.5077 23.8913 44.0735 23.9168 44.6171 23.7912C45.1607 23.6656 45.663 23.3934 46.0736 23.0018C46.0862 23.0936 46.0921 23.1863 46.091 23.279C46.051 23.5815 46.1658 23.7029 46.4651 23.6757C46.7123 23.6531 46.9609 23.6531 47.2081 23.6757C47.5439 23.7102 47.657 23.5924 47.6535 23.2301C47.6396 21.8551 47.65 20.4801 47.65 19.1069ZM44.1336 22.3333C43.6027 22.3068 43.1023 22.0674 42.737 21.6654C42.3718 21.2633 42.1701 20.7298 42.1741 20.1764C42.1782 19.623 42.3877 19.0927 42.7587 18.6965C43.1298 18.3003 43.6337 18.0689 44.1649 18.0507C44.7005 18.0706 45.2075 18.3072 45.5781 18.7102C45.9488 19.1132 46.1539 19.6508 46.1498 20.2088C46.1457 20.7668 45.9328 21.3011 45.5563 21.6981C45.1798 22.0952 44.6694 22.3237 44.1336 22.3352V22.3333Z" fill="var(--icon-color, black)"></path>
<path d="M94.5949 17.0543C94.5949 16.8061 94.5253 16.692 94.273 16.7065C94.0624 16.721 93.8484 16.7065 93.6361 16.7065C93.0742 16.7065 93.0741 16.7065 93.0237 17.2681C93.0237 17.2844 92.9924 17.2971 92.9767 17.3116C91.5848 15.9801 89.4969 16.4674 88.4216 17.6739C87.8037 18.3472 87.4528 19.2387 87.4393 20.1698C87.4257 21.101 87.7505 22.0031 88.3485 22.6956C88.9331 23.3731 89.7492 23.7852 90.6221 23.8438C91.495 23.9024 92.3552 23.6027 93.0185 23.009C93.0322 23.0964 93.038 23.185 93.0359 23.2735C92.9837 23.6141 93.1437 23.6993 93.4395 23.6757C93.7107 23.6567 93.9827 23.6567 94.2538 23.6757C94.5218 23.6938 94.6018 23.5779 94.6018 23.3134C94.5902 21.2264 94.5879 19.1401 94.5949 17.0543ZM91.1063 22.3333C90.5706 22.3213 90.0605 22.0923 89.6844 21.6949C89.3083 21.2975 89.0959 20.7631 89.0923 20.2052C89.0887 19.6473 89.2941 19.1099 89.665 18.7073C90.0359 18.3046 90.543 18.0684 91.0785 18.0489C91.6142 18.0609 92.1242 18.2899 92.5003 18.6873C92.8764 19.0847 93.0888 19.6191 93.0925 20.177C93.0961 20.7349 92.8906 21.2723 92.5197 21.6749C92.1489 22.0776 91.6418 22.3138 91.1063 22.3333Z" fill="var(--icon-color, black)"></path>
<path d="M55.892 19.5272C55.5214 17.4891 53.658 16.1993 51.6588 16.5978C50.8536 16.7538 50.1262 17.1982 49.6027 17.854C49.0792 18.5098 48.7926 19.3357 48.7926 20.1884C48.7926 21.0411 49.0792 21.867 49.6027 22.5228C50.1262 23.1786 50.8536 23.623 51.6588 23.779C53.2247 24.0833 54.4827 23.5072 55.5075 22.288C55.6345 22.1377 55.5736 22.058 55.4344 21.9801C55.1526 21.8225 54.869 21.6703 54.5993 21.4946C54.4253 21.3786 54.2983 21.3732 54.1556 21.5652C53.9347 21.8565 53.6468 22.0851 53.3187 22.2301C52.2747 22.7138 51.0289 22.2427 50.6235 21.2138C50.4635 20.8116 50.4861 20.7754 50.8898 20.7735H53.23C54.0321 20.7735 54.8359 20.7735 55.6398 20.7735C55.8816 20.7735 55.9877 20.6993 55.9686 20.4384C55.9639 20.1331 55.9383 19.8286 55.892 19.5272ZM53.872 19.4094H52.3426C51.8363 19.4094 51.3282 19.4094 50.8202 19.4094C50.5887 19.4094 50.5331 19.3279 50.6218 19.096C50.7602 18.7473 50.9986 18.4515 51.3043 18.2489C51.6101 18.0462 51.9684 17.9467 52.3304 17.9638C52.6981 17.9639 53.0576 18.0769 53.364 18.2886C53.6703 18.5003 53.91 18.8013 54.0529 19.154C54.1365 19.3841 54.0355 19.4094 53.865 19.4094H53.872Z" fill="var(--icon-color, black)"></path>
<path d="M78.699 20.3895C78.6829 20.0343 78.6387 19.681 78.5668 19.3334C78.3452 18.392 77.7779 17.5786 76.9867 17.0678C76.1956 16.5571 75.2436 16.3896 74.3352 16.6015C73.5385 16.7681 72.822 17.2176 72.3082 17.8732C71.7945 18.5288 71.5153 19.3498 71.5183 20.196C71.5214 21.0421 71.8066 21.8609 72.3251 22.5124C72.8437 23.164 73.5634 23.6078 74.3614 23.7681C76.0125 24.1305 77.3784 23.346 78.2414 22.2736C78.3458 22.1413 78.3179 22.0616 78.184 21.9855C77.9247 21.8388 77.662 21.7011 77.4132 21.5345C77.1644 21.3678 77.0095 21.3533 76.8268 21.6178C76.6664 21.8324 76.4619 22.0069 76.2283 22.1287C75.1391 22.7663 73.7037 22.27 73.3191 21.1305C73.2269 20.8587 73.2739 20.7555 73.5697 20.7681C74.3596 20.7826 75.1513 20.7681 75.9429 20.7681C76.7346 20.7681 77.5489 20.7555 78.3527 20.7681C78.6381 20.7863 78.7199 20.6667 78.699 20.3895ZM76.6111 19.4113C76.0891 19.4113 75.5671 19.4113 75.0556 19.4113C74.544 19.4113 74.0412 19.4113 73.5349 19.4113C73.2843 19.4113 73.2635 19.3171 73.3487 19.1015C73.4867 18.7534 73.7237 18.4576 74.0279 18.2539C74.3321 18.0502 74.6889 17.9483 75.0504 17.962C75.4162 17.9613 75.7742 18.0723 76.08 18.2812C76.3859 18.4902 76.6262 18.788 76.7711 19.1377C76.846 19.337 76.8059 19.4131 76.5972 19.4113H76.6111Z" fill="var(--icon-color, black)"></path>
</g>
<defs>
<clipPath id="1631299372999-clip0">
<rect width="95" height="25" fill="var(--icon-color, black)" transform="translate(7 7)"></rect>
</clipPath>
</defs>
</svg>