<svg width="100%" height="34.48275862068966%" viewBox="0 0 116 40" fill="none" xmlns="http://www.w3.org/2000/svg">
<path d="M22.6888 9.91889C25.2325 9.91889 27.7831 9.81407 30.3198 9.94405C34.4458 10.1537 37.6827 13.7677 37.6632 17.9548C37.6438 22.1418 34.3874 25.6846 30.2378 25.8984C27.8595 26.0158 25.4714 25.9515 23.0889 25.9333C22.5568 25.9333 22.3193 26.0731 22.1984 26.6237C21.9706 27.6663 21.6497 28.6893 21.3538 29.7165C20.9814 31.0134 20.1451 31.6493 18.8184 31.6535C17.7765 31.6535 16.7346 31.6633 15.6941 31.6535C15.0272 31.6451 14.8605 31.4299 15.0245 30.7814C15.8872 27.356 16.7665 23.9335 17.6154 20.5081C17.7543 19.9337 18.1113 19.8778 18.5878 19.8792C22.1072 19.8894 25.6265 19.8894 29.1459 19.8792C29.4004 19.8864 29.6552 19.8776 29.9086 19.8526C30.3608 19.7938 30.7779 19.5761 31.0862 19.2381C31.3945 18.9001 31.5742 18.4634 31.5937 18.0051C31.6215 17.1274 30.9574 16.3057 30.0447 16.1268C29.727 16.0702 29.4047 16.0435 29.082 16.0471C25.6798 16.0331 22.2748 16.0583 18.8782 15.9898C18.0736 15.9545 17.2826 15.7687 16.5457 15.442C15.4343 14.9654 14.8786 14.0011 14.8244 12.7866C14.7939 12.1592 14.8077 11.5289 14.8077 10.9014C14.8077 9.92308 14.8661 9.86019 15.8163 9.8588C18.1076 9.8588 20.3989 9.8588 22.6902 9.8588L22.6888 9.91889Z" fill="var(--icon-color, black)"></path>
<path d="M77.2685 25.7824C76.3891 25.9222 75.6014 26.2017 74.8318 26.1304C73.3898 25.999 72.5576 25.0124 72.2812 23.4192C71.8227 20.7568 73.7009 18.3517 76.2182 18.5054C76.9726 18.5543 77.7019 18.9931 78.5174 19.2796C78.6563 18.6465 78.8369 17.8276 78.9981 17.0044C79.2328 15.8179 79.0772 15.9521 80.2484 15.9465C81.4903 15.9465 81.4875 15.9465 81.2458 17.1498C80.7068 19.84 80.1567 22.5289 79.6468 25.2248C79.5385 25.7964 79.3023 26.0465 78.7285 25.9571C78.1937 25.8746 77.5741 26.1905 77.2685 25.7824ZM77.813 21.9489C77.813 21.1104 77.331 20.6171 76.5489 20.6311C75.5569 20.6506 74.7276 21.6023 74.7345 22.7148C74.7345 23.5184 75.2638 24.0592 76.0196 24.0425C77.0267 24.0201 77.8228 23.0907 77.813 21.9489Z" fill="var(--icon-color, black)"></path>
<path d="M65.9172 19.2824C66.0936 18.4439 66.3145 17.474 66.4923 16.4971C66.5632 16.1058 66.7215 15.9381 67.1244 15.9381C69.1721 15.9562 68.9304 15.741 68.5456 17.583C68.0205 20.1279 67.5037 22.6756 67.0327 25.2303C66.923 25.8257 66.6743 26.0437 66.1158 25.9515C65.5879 25.8648 64.9586 26.217 64.6724 25.7754C63.7819 25.9151 62.9651 26.1946 62.1857 26.1164C60.7284 25.9682 59.9088 24.948 59.6615 23.3115C59.2628 20.6771 61.141 18.3376 63.6333 18.504C64.3876 18.5571 65.1156 18.9987 65.9172 19.2824ZM62.0982 22.705C62.0982 23.5002 62.6331 24.055 63.3818 24.0424C64.3543 24.0242 65.2351 23.025 65.2253 21.9573C65.2184 21.1593 64.6947 20.6226 63.9306 20.6324C62.9317 20.6436 62.0982 21.5981 62.0982 22.705Z" fill="var(--icon-color, black)"></path>
<path d="M46.4362 15.9087C47.2211 15.9465 48.0157 15.9185 48.7895 16.0345C50.2926 16.2609 51.179 17.1525 51.4026 18.5277C51.5174 19.2338 51.4126 19.9583 51.1025 20.6022C50.7924 21.2461 50.2922 21.7779 49.6703 22.125C48.7284 22.6309 47.7142 22.6211 46.6932 22.6155C45.165 22.6058 45.165 22.6155 44.8955 24.1053C44.8872 24.1514 44.8816 24.1976 44.8719 24.2451C44.5565 25.9319 44.1884 26.1765 42.4699 25.9137C41.949 25.8341 42.0698 25.5182 42.1351 25.194C42.5982 22.8648 43.0613 20.5388 43.5243 18.2161C43.6369 17.6459 43.7758 17.0785 43.855 16.5041C43.9175 16.0555 44.1495 15.9297 44.5621 15.9451C45.1872 15.9646 45.8124 15.9451 46.4375 15.9451L46.4362 15.9087ZM45.6651 20.4242C46.2875 20.4242 46.839 20.4242 47.3892 20.4242C47.5513 20.4264 47.7133 20.4124 47.8726 20.3823C48.5547 20.2425 48.9284 19.7673 48.8965 19.1007C48.8673 18.497 48.5186 18.1993 47.7643 18.135C46.0708 17.9953 46.0458 18.0106 45.761 19.6933C45.7263 19.8973 45.7054 20.1041 45.6651 20.4242V20.4242Z" fill="var(--icon-color, black)"></path>
<path d="M107.676 19.2028C107.851 18.9554 109.386 18.6703 109.76 18.9764C109.814 19.0443 109.852 19.1233 109.873 19.2078C109.893 19.2923 109.895 19.3802 109.878 19.4655C109.479 21.5367 109.065 23.606 108.636 25.6734C108.6 25.8467 108.426 26.1094 108.295 26.1234C107.768 26.1765 107.237 26.1807 106.709 26.136C106.559 26.1234 106.431 25.8886 106.244 25.7167C105.448 26.1234 104.558 26.3764 103.585 26.0996C102.386 25.76 101.652 24.9075 101.537 23.6707C101.305 21.2082 103.171 18.933 105.627 18.7947C106.252 18.7583 106.899 19.0379 107.676 19.2028ZM104.086 22.8476C104.076 23.5952 104.543 24.1221 105.238 24.1501C106.156 24.1878 107.035 23.264 107.065 22.2312C107.087 21.4514 106.602 20.9106 105.871 20.9008C104.929 20.8882 104.097 21.7952 104.086 22.8476V22.8476Z" fill="var(--icon-color, black)"></path>
<path d="M98.9487 19.9714C99.7698 18.7849 100.521 17.7255 101.24 16.6438C101.498 16.2539 101.795 16.068 102.269 16.0988C102.825 16.1365 103.38 16.0988 103.936 16.1169C104.111 16.1448 104.281 16.1956 104.443 16.2679C104.383 16.4524 104.368 16.6718 104.258 16.8171C102.994 18.483 101.758 20.1712 100.427 21.7812C99.7698 22.5806 99.6892 23.5169 99.5072 24.4365C99.1016 26.4839 99.3377 26.1723 97.3053 26.2114C96.7871 26.2212 96.5759 26.08 96.7176 25.521C96.901 24.8013 97.0094 24.062 97.183 23.3395C97.3291 22.7786 97.2801 22.1844 97.0441 21.6554C96.3759 20.0706 95.773 18.4592 95.1464 16.8576C94.9047 16.2413 94.9811 16.1309 95.6479 16.1072C97.6081 16.0359 97.6095 16.0359 98.2388 17.8792C98.4625 18.5361 98.6834 19.1901 98.9487 19.9714Z" fill="var(--icon-color, black)"></path>
<path d="M85.2593 18.4718C87.4474 18.4718 88.9269 19.8833 88.9283 21.9657C88.9283 24.3778 87.0764 26.1988 84.6217 26.1974C82.4156 26.1974 80.968 24.8125 80.9666 22.7036C80.9639 20.2761 82.7976 18.469 85.2593 18.4718ZM85.1301 20.7638C84.8992 20.7617 84.6703 20.8061 84.4567 20.8943C84.2431 20.9826 84.0491 21.1129 83.8863 21.2776C83.7235 21.4423 83.5951 21.6381 83.5085 21.8535C83.422 22.0688 83.3792 22.2994 83.3825 22.5317C83.3825 23.3702 83.8618 23.8649 84.7064 23.8943C84.9438 23.9043 85.1806 23.8648 85.402 23.7781C85.6234 23.6915 85.8246 23.5597 85.9928 23.391C86.161 23.2222 86.2927 23.0203 86.3795 22.7978C86.4663 22.5754 86.5064 22.3372 86.4971 22.0984C86.4888 21.2865 85.9581 20.7736 85.1301 20.7638V20.7638Z" fill="var(--icon-color, black)"></path>
<path d="M53.6364 22.9915C53.9143 23.8649 54.495 24.2241 55.3355 24.143C55.4966 24.1244 55.6563 24.0945 55.8134 24.0536C56.1426 23.9739 56.558 23.7196 56.7858 23.837C57.1956 24.055 57.5207 24.4659 57.8152 24.8474C57.8986 24.9536 57.8236 25.3323 57.7013 25.4274C56.3385 26.4769 53.8768 26.4308 52.5473 25.3645C51.2525 24.3247 51.0317 22.0285 52.068 20.3753C53.1586 18.6367 55.5508 17.9449 57.3929 18.838C58.7224 19.4794 59.4073 21.2934 58.7905 22.6602C58.7113 22.8349 58.3654 22.9761 58.1389 22.9817C56.8886 23.0124 55.6383 22.9956 54.388 22.9956L53.6364 22.9915ZM53.9629 21.2292H56.8303C56.8164 20.5765 56.4246 20.3361 55.9162 20.2369C55.1215 20.079 54.4311 20.4158 53.9629 21.2292Z" fill="var(--icon-color, black)"></path>
<path d="M91.8276 20.8379C92.3652 21.1314 92.9042 21.4221 93.4391 21.7183C94.2531 22.1683 94.7158 22.8364 94.7241 23.7951C94.7338 24.8754 94.1517 25.6482 93.039 25.985C91.7039 26.3903 90.4425 26.1667 89.2228 25.5238C88.7602 25.2807 88.6824 24.9984 88.9949 24.5903C89.0074 24.571 89.0185 24.551 89.0283 24.5302C89.6256 23.4471 89.6201 23.4611 90.7412 23.9097C91.0849 24.0416 91.4456 24.1235 91.8123 24.1529C91.9832 24.1682 92.1693 24.0131 92.3499 23.9432C92.2374 23.7895 92.1554 23.5882 92.0068 23.489C91.6998 23.2864 91.3538 23.1438 91.0343 22.9677C89.8743 22.3346 89.3798 21.3508 89.6451 20.2132C89.8743 19.2195 90.8204 18.4676 92.0512 18.4942C92.8667 18.5124 93.6794 18.7458 94.4865 18.9135C94.8964 18.9987 94.9922 19.2698 94.7755 19.643C94.7236 19.7471 94.6772 19.8539 94.6366 19.963C94.2351 20.8868 94.242 20.8602 93.2654 20.6157C92.8306 20.5053 92.3624 20.5234 91.9095 20.4843L91.8276 20.8379Z" fill="var(--icon-color, black)"></path>
<path d="M69.3221 25.9571H69.1832C68.1135 25.9571 68.1218 25.9571 68.3316 24.9313C68.665 23.2962 69.0026 21.6611 69.3041 20.0189C69.4055 19.4739 69.6083 19.2391 70.2071 19.2615C72.0339 19.33 71.8519 19.0015 71.4866 20.9176C71.2393 22.2159 70.985 23.5128 70.71 24.8055C70.4488 26.006 70.7405 25.9599 69.3221 25.9571Z" fill="var(--icon-color, black)"></path>
<path d="M71.2226 15.6642C71.9686 15.6544 72.4187 16.0736 72.4326 16.7822C72.4493 17.678 71.813 18.3572 70.9461 18.3698C70.2223 18.3796 69.7361 17.931 69.725 17.2392C69.7168 17.0359 69.7494 16.833 69.8209 16.6427C69.8924 16.4524 70.0013 16.2785 70.141 16.1315C70.2808 15.9845 70.4487 15.8673 70.6345 15.787C70.8203 15.7067 71.0203 15.6649 71.2226 15.6642V15.6642Z" fill="var(--icon-color, black)"></path>
</svg>