<svg width="100%" height="34.48275862068966%" viewBox="0 0 116 40" fill="none" xmlns="http://www.w3.org/2000/svg">
<path d="M50.5068 14.2958C50.6152 14.135 50.6955 14.0365 50.7503 13.9272C51.5722 12.4192 53.916 12.6618 54.7257 13.6295C55.0507 14.0185 55.0909 14.4243 54.8937 14.883C54.3373 16.1448 53.7516 17.3971 53.2548 18.6818C52.7946 19.8705 52.4099 21.0903 52.0373 22.3102C51.9155 22.7016 51.935 23.1398 51.9326 23.5565C51.9326 23.8915 52.131 24.0019 52.4415 23.865C52.5885 23.7976 52.726 23.7116 52.8506 23.6093C53.8093 22.8474 54.5351 21.8383 54.9472 20.6941C55.7654 18.5329 56.6786 16.3958 57.4932 14.2274C58.1908 12.37 60.6588 12.6137 61.5562 13.6583C61.6134 13.7255 61.6779 13.7892 61.7437 13.8636C62.0834 13.6031 62.4048 13.3461 62.736 13.1036C63.5109 12.5111 64.4633 12.1889 65.4438 12.1875C66.7223 12.1875 67.5977 12.7878 68.1224 13.9116C68.5693 14.8722 68.6338 15.9047 68.5169 16.9349C68.1845 19.8549 67.0839 22.4831 65.3355 24.8592C65.2728 24.9408 65.2382 25.0401 65.2368 25.1425C65.3204 25.1181 65.4018 25.0872 65.4803 25.0501C67.0632 24.1604 68.1979 22.9225 68.7677 21.1756C69.5409 18.8127 70.5174 16.5243 71.4671 14.2238C72.2061 12.4348 74.6096 12.5897 75.5435 13.6619C75.6007 13.7279 75.6652 13.7928 75.7285 13.8684C76.0609 13.6127 76.3738 13.3617 76.7026 13.124C77.4909 12.5148 78.4649 12.1861 79.4664 12.1911C80.6341 12.2007 81.4827 12.7182 82.0148 13.7291C82.5018 14.6524 82.6138 15.6502 82.5225 16.6707C82.2534 19.688 81.1235 22.3858 79.341 24.8352C79.2826 24.9168 79.24 25.0093 79.1608 25.1449C79.2218 25.143 79.2823 25.1337 79.341 25.1173C80.8825 24.2456 82.1779 23.1531 82.766 21.4253C83.113 20.4048 83.4284 19.3734 83.7985 18.3612C84.3596 16.8743 85.0205 15.4259 85.777 14.0257C86.5721 12.5201 88.7369 12.6377 89.6306 13.4458C90.1286 13.896 90.226 14.3151 89.9557 14.9502C89.286 16.5219 88.6018 18.0887 87.9504 19.6676C87.5206 20.7121 87.159 21.7831 87.0287 22.9093C87.006 23.1569 87.0113 23.4061 87.0445 23.6525C87.075 23.9155 87.2649 23.9971 87.4841 23.8794C87.7419 23.7429 87.9836 23.5786 88.2048 23.3896C89.09 22.6296 89.7877 21.7087 90.4683 20.7734C90.7727 20.3483 91.2122 20.2451 91.6359 20.478C92.0012 20.6797 92.1351 21.0783 91.9099 21.4229C90.5584 23.5096 89.1095 25.5171 87.0908 27.0516C86.4102 27.569 85.6906 28.0277 84.8213 28.1321C84.3714 28.1941 83.9139 28.175 83.471 28.0757C82.6747 27.8752 82.324 27.2353 82.1621 26.4957C82.0976 26.2051 82.1012 25.9013 82.0635 25.6048C82.042 25.5125 82.0105 25.4228 81.9697 25.337C81.8773 25.3601 81.7888 25.396 81.7067 25.4439C80.6161 26.2798 79.4136 26.963 78.1332 27.4742C76.5504 28.1201 74.9079 28.3026 73.2191 28.1694C72.8932 28.1511 72.5762 28.0571 72.2941 27.8949C72.0121 27.7328 71.7729 27.5072 71.5961 27.2365C71.525 27.1596 71.443 27.0933 71.3526 27.0396C71.286 27.1196 71.231 27.2086 71.1895 27.3037C70.6213 29.3592 70.0555 31.4167 69.4922 33.4763C69.4581 33.5963 69.4398 33.7296 69.4131 33.8569C69.2633 34.5664 68.8822 34.8774 68.1468 34.8918C66.9487 34.9134 65.7263 34.0418 65.5132 32.9408C65.4456 32.5384 65.4667 32.1264 65.5753 31.7329C66.0343 29.9776 66.5335 28.2318 67.0193 26.4825C67.0503 26.3986 67.0755 26.3127 67.0948 26.2255C67.1033 26.1727 67.0948 26.0838 67.0595 26.0658C66.9983 26.0411 66.9296 26.0411 66.8684 26.0658C66.787 26.106 66.7096 26.1534 66.637 26.2075C65.1662 27.1152 63.6199 27.8416 61.8885 28.0949C60.9367 28.2483 59.967 28.2609 59.0115 28.1321C58.7241 28.0915 58.4492 27.9895 58.2059 27.8334C57.9626 27.6772 57.7568 27.4707 57.6027 27.2281C57.54 27.1562 57.4674 27.0931 57.3872 27.0408C57.3213 27.1071 57.267 27.1838 57.2265 27.2677C56.6461 29.372 56.0682 31.478 55.4927 33.5855C55.4891 33.5948 55.4867 33.6045 55.4854 33.6143C55.4111 34.7069 54.6623 35.0383 53.6091 34.8378C52.556 34.6373 51.6611 33.8208 51.5137 32.8423C51.4693 32.4167 51.5081 31.9867 51.6282 31.5756C52.0495 29.9643 52.5097 28.3639 52.9553 26.7586C52.9797 26.6722 53.043 26.5761 53.0211 26.5041C53 26.4681 52.9699 26.4382 52.9336 26.4171C52.8974 26.3961 52.8562 26.3847 52.8141 26.384C52.7264 26.4068 52.657 26.5041 52.5791 26.5677C51.868 27.168 51.157 27.7804 50.2304 28.0169C49.7427 28.1441 49.2377 28.1944 48.734 28.1658C47.9926 28.1189 47.4982 27.6711 47.2158 26.9963C46.9479 26.3552 46.8213 26.336 46.2855 26.8066C45.3444 27.6351 44.279 28.1778 42.9811 28.1982C41.7696 28.2174 40.8796 27.6891 40.2781 26.677C39.6937 25.6936 39.5585 24.5998 39.6231 23.494C39.7862 20.6749 40.7103 18.0851 42.2432 15.715C43.21 14.2214 44.5213 13.0952 46.2295 12.4733C46.943 12.2021 47.7177 12.127 48.4711 12.2559C49.4281 12.4264 50.0429 12.9847 50.3522 13.8852C50.3984 13.9957 50.4411 14.1133 50.5068 14.2958ZM78.093 15.9467C78.0884 15.7671 78.0725 15.5878 78.0455 15.41C77.9579 14.991 77.7716 14.9022 77.4368 15.1699C77.042 15.4808 76.6834 15.8339 76.3677 16.2229C74.6729 18.4213 73.6282 20.9054 73.0718 23.6021C72.992 24.0631 72.9699 24.5321 73.0061 24.9985C73.0268 25.4307 73.2593 25.5303 73.6063 25.271C73.8995 25.0579 74.1659 24.8112 74.4002 24.5362C75.731 22.9117 76.6648 21.0723 77.3528 19.1069C77.7168 18.0887 78.0212 17.0465 78.093 15.9515V15.9467ZM64.0984 15.9792C64.0969 15.7913 64.0847 15.6037 64.0619 15.4173C63.9888 15.003 63.7867 14.9046 63.4592 15.1699C63.0775 15.4652 62.7311 15.8023 62.4267 16.1749C60.6905 18.4081 59.6263 20.9414 59.0772 23.6873C58.9847 24.1556 59.02 24.6587 59.0638 25.1389C59.093 25.4463 59.2818 25.5123 59.5374 25.325C59.8597 25.1016 60.1533 24.8403 60.4116 24.547C61.7327 22.9417 62.6605 21.1191 63.3472 19.1765C63.7161 18.1379 64.0339 17.0766 64.0984 15.984V15.9792ZM48.8899 16.1112C48.8789 15.9095 48.8716 15.7102 48.857 15.5109C48.8498 15.4417 48.8359 15.3734 48.8156 15.3068C48.6939 14.8037 48.4991 14.7185 48.118 15.0547C47.7715 15.3464 47.4643 15.6804 47.2036 16.0488C45.7291 18.246 44.7246 20.6353 44.3545 23.2527C44.2766 23.8038 44.3399 24.3837 44.402 24.9444C44.4397 25.2758 44.6455 25.3406 44.9207 25.1329C45.2008 24.9199 45.4575 24.6784 45.6865 24.4125C46.4718 23.4832 46.9978 22.4026 47.4861 21.3052C48.2239 19.6507 48.7742 17.9398 48.8899 16.116V16.1112Z" fill="var(--icon-color, black)"></path>
<path d="M31.9134 10.1621C32.4552 10.2221 33.0007 10.2617 33.5401 10.3482C34.1988 10.4526 34.4508 10.9617 34.2 11.5728C33.364 13.6163 32.5332 15.6615 31.7077 17.7082C31.681 17.817 31.67 17.9289 31.6748 18.0407C31.7887 18.0359 31.9013 18.0157 32.0096 17.9807C34.0089 17.0202 35.616 15.6514 36.5341 13.6067C36.9674 12.6524 37.1022 11.5922 36.9213 10.5619C36.7143 9.33242 35.8011 8.52078 34.4387 8.33468C32.8077 8.08342 31.1412 8.45998 29.7839 9.38645C27.7677 10.7372 26.4028 12.5454 25.8049 14.8878C25.7455 15.1404 25.712 15.3982 25.7051 15.6575C25.6808 16.2734 25.3325 16.618 24.7043 16.6756C23.4758 16.7957 22.3909 15.7019 22.1961 14.6345C22.0451 13.7784 22.2265 12.9908 22.5942 12.226C23.522 10.2965 25.0294 8.9134 26.8654 7.84121C29.2056 6.47367 31.7515 5.94418 34.4447 6.10147C36.3453 6.21193 38.179 6.61895 39.802 7.66232C40.9672 8.41633 41.9072 9.37084 42.2018 10.7732C42.5488 12.4277 42.1446 13.9417 41.2107 15.3357C40.1587 16.8965 38.6904 17.9771 36.9992 18.7707C36.2248 19.1309 35.409 19.4143 34.6103 19.7313C34.4691 19.7865 34.3242 19.8069 34.3352 20.0194C34.4569 22.4207 34.8733 24.7392 36.1481 26.8343C36.9663 28.1778 38.0694 29.2044 39.6547 29.6174C41.0439 29.9776 42.365 29.7147 43.6422 29.1372C43.91 29.0171 44.1633 28.867 44.4336 28.7554C44.6035 28.6862 44.7928 28.6785 44.9679 28.7337C45.143 28.7888 45.2927 28.9032 45.3906 29.0567C45.4874 29.2056 45.5282 29.3832 45.5059 29.5587C45.4837 29.7342 45.3998 29.8964 45.2688 30.0172C43.686 31.3704 41.9583 32.499 39.8811 32.9756C36.7471 33.696 33.9906 32.541 32.23 29.8131C31.2304 28.2631 30.6764 26.5546 30.3598 24.7608C30.2904 24.3682 30.2454 23.972 30.1748 23.5793C30.1434 23.4857 30.0974 23.3973 30.0384 23.3176C29.9751 23.3957 29.8777 23.4641 29.8545 23.5517C29.5234 24.7944 29.1423 26.0299 28.8988 27.2894C28.7027 28.3111 28.1244 28.6041 27.1102 28.5236C26.7772 28.4917 26.4513 28.4082 26.1446 28.2763C24.7944 27.718 24.2915 26.7611 24.5411 25.3239C25.016 22.5792 25.8804 19.945 26.8618 17.3468C27.6082 15.3561 28.4763 13.4098 29.2628 11.4324C29.5916 10.6051 30.1882 10.2317 31.0587 10.2317C31.3424 10.2317 31.6261 10.2317 31.911 10.2317L31.9134 10.1621Z" fill="var(--icon-color, black)"></path>
<path d="M90.8164 5.41107C91.1925 5.40533 91.5661 5.47367 91.9152 5.61207C92.2643 5.75047 92.5818 5.95616 92.8493 6.2171C93.1168 6.47803 93.3287 6.78897 93.4728 7.13169C93.6169 7.47442 93.6902 7.84205 93.6884 8.21306C93.6867 8.58407 93.6098 8.951 93.4625 9.29237C93.3151 9.63373 93.1001 9.94267 92.8302 10.2011C92.5602 10.4595 92.2407 10.6622 91.8903 10.7974C91.5399 10.9325 91.1657 10.9973 90.7896 10.9881C90.4142 10.9932 90.0417 10.9244 89.6937 10.7857C89.3457 10.6469 89.0293 10.4411 88.763 10.1802C88.4967 9.91931 88.286 9.60862 88.143 9.26635C88.0001 8.92408 87.928 8.55711 87.9307 8.18698C87.9344 6.62373 89.2128 5.39906 90.8164 5.41107Z" fill="var(--icon-color, black)"></path>
</svg>